<?xml version="1.0" standalone="no"?>
<!DOCTYPE svg PUBLIC "-//W3C//DTD SVG 20010904//EN"
 "http://www.w3.org/TR/2001/REC-SVG-20010904/DTD/svg10.dtd">
<svg version="1.0" xmlns="http://www.w3.org/2000/svg"
 width="687.000000pt" height="901.000000pt" viewBox="0 0 687.000000 901.000000"
 preserveAspectRatio="xMidYMid meet">

<g transform="translate(0.000000,901.000000) scale(0.100000,-0.100000)"
fill="#000000" stroke="none">
<path d="M3225 8847 c-121 -90 -452 -336 -735 -548 -283 -211 -656 -489 -827
-618 -172 -128 -313 -236 -313 -239 1 -4 60 -50 133 -103 73 -53 452 -330 842
-616 391 -285 803 -588 918 -671 l207 -152 583 427 c320 234 623 456 672 493
50 36 258 189 462 339 205 150 375 276 378 281 3 5 -9 19 -27 32 -18 12 -364
270 -768 572 -1081 808 -1281 957 -1294 962 -6 2 -110 -69 -231 -159z m244
-272 c101 -50 158 -138 168 -256 l6 -68 68 35 69 34 0 -33 0 -32 98 -23 c275
-65 439 -216 501 -462 l19 -75 40 -7 c43 -7 96 -31 124 -55 22 -19 35 -11 43
29 10 43 90 121 141 136 55 16 137 15 178 -2 49 -20 116 -85 137 -131 24 -51
24 -119 0 -170 -23 -50 -94 -117 -155 -143 -30 -14 -46 -27 -46 -39 -1 -48
-16 -46 -93 11 -42 31 -78 56 -81 56 -4 0 -6 -15 -6 -32 -1 -80 -81 -186 -170
-226 -73 -33 -174 -34 -242 -4 l-47 21 -27 -82 c-34 -105 -32 -102 -58 -78
l-21 20 -196 -175 -196 -176 25 -61 c66 -164 -20 -355 -187 -412 -161 -55
-348 40 -398 203 -9 29 -13 76 -11 126 l3 78 -52 20 c-118 44 -202 163 -246
346 -22 92 -22 92 -53 92 l-32 0 34 63 c18 34 34 65 34 69 0 4 -20 16 -44 27
-99 43 -178 148 -192 255 l-7 48 -36 -6 c-20 -3 -53 -9 -75 -12 l-38 -7 6 31
7 30 -290 97 c-160 53 -291 100 -291 103 1 4 20 21 43 38 l42 30 264 -93 c146
-51 265 -92 266 -90 1 1 6 14 11 30 l9 27 47 -61 46 -61 21 47 c32 72 74 119
139 153 111 59 225 53 326 -18 l55 -39 58 35 c114 69 263 99 448 92 102 -4
134 -10 215 -38 52 -18 117 -44 144 -57 l50 -25 22 27 21 27 33 -76 33 -75 28
20 c15 11 44 26 65 35 l36 15 -6 52 c-10 72 -65 181 -126 250 -62 69 -165 123
-307 160 l-93 24 0 -21 c0 -47 -14 -46 -83 4 l-67 50 -19 -38 c-27 -53 -77
-97 -145 -128 -51 -23 -68 -26 -130 -22 -45 3 -88 13 -116 27 -41 20 -46 20
-55 5 -59 -97 -121 -142 -209 -151 -105 -11 -211 56 -256 159 -50 117 10 235
153 298 43 19 47 24 47 55 0 19 2 35 5 35 2 0 33 -20 68 -45 36 -25 67 -45 71
-45 3 0 10 18 16 39 15 56 68 130 117 165 87 60 208 69 302 21z"/>
<path d="M2955 8260 c-72 -35 -75 -35 -75 -10 0 11 -3 20 -7 20 -13 0 -68 -42
-86 -66 -88 -118 74 -275 211 -205 73 37 112 119 77 165 -8 10 -20 43 -26 72
-7 30 -17 54 -23 53 -6 0 -38 -14 -71 -29z"/>
<path d="M3516 7739 c-131 -15 -247 -53 -292 -97 -21 -20 -21 -23 -7 -74 9
-32 12 -75 9 -108 l-5 -55 75 3 c74 4 76 4 65 -16 -6 -11 -11 -25 -11 -30 0
-10 163 -66 238 -81 69 -14 247 -14 314 0 29 6 81 24 115 41 63 31 72 44 73
103 1 17 8 48 16 70 29 76 29 75 -3 75 -17 0 -51 3 -76 6 -46 7 -46 7 -30 31
18 28 21 24 -37 53 -72 37 -176 69 -243 75 -34 3 -78 7 -97 9 -19 2 -66 0
-104 -5z"/>
<path d="M2832 7722 c-99 -36 -167 -130 -164 -229 3 -112 45 -184 135 -229 44
-23 60 -26 128 -22 67 3 83 7 120 33 94 66 135 175 105 276 -41 143 -187 220
-324 171z m177 -48 c133 -67 159 -231 52 -335 -60 -58 -115 -74 -193 -58 -101
21 -180 137 -162 237 8 48 48 118 80 138 74 49 149 55 223 18z"/>
<path d="M4792 7723 c-13 -3 -43 -23 -67 -46 -36 -35 -44 -50 -50 -94 -7 -54
3 -183 14 -182 3 0 44 17 91 38 l85 39 3 -24 c2 -13 6 -24 8 -24 20 0 95 66
109 96 31 65 -7 144 -88 183 -42 21 -59 23 -105 14z"/>
<path d="M3166 7303 c-24 -37 -27 -48 -15 -52 7 -2 39 -28 70 -58 60 -57 117
-161 126 -232 5 -33 10 -39 39 -47 l33 -9 -44 -70 c-24 -38 -42 -71 -40 -73 2
-3 18 1 35 8 46 19 164 8 225 -20 28 -13 53 -24 58 -24 12 -1 396 328 396 340
1 6 -6 17 -14 24 -8 7 -15 16 -15 20 0 4 38 15 85 25 47 10 85 21 85 25 0 4
-7 14 -16 21 -9 8 -27 30 -40 51 l-23 37 -58 -29 c-82 -41 -178 -60 -298 -60
-125 0 -237 20 -362 65 l-94 34 -11 -24 c-6 -14 -14 -25 -17 -25 -4 0 -21 27
-39 60 -19 33 -34 60 -35 60 -1 -1 -15 -22 -31 -47z"/>
<path d="M2977 7184 c-27 -7 -53 -14 -58 -16 -6 -2 6 -24 25 -50 43 -56 45
-68 10 -68 -26 0 -26 -2 -20 -42 11 -70 60 -202 90 -240 39 -52 99 -90 148
-94 38 -4 48 0 83 30 l40 35 -43 86 c-23 47 -42 89 -42 93 0 4 12 8 28 7 24 0
27 3 23 30 -9 79 -85 176 -173 221 -26 13 -51 23 -55 23 -4 -1 -30 -7 -56 -15z"/>
<path d="M3360 6699 c-56 -25 -95 -62 -123 -114 -31 -57 -30 -173 0 -231 41
-78 115 -124 208 -132 191 -15 325 187 238 359 -61 119 -205 172 -323 118z
m185 -38 c43 -19 100 -78 116 -118 22 -60 6 -151 -38 -210 -52 -69 -172 -94
-252 -53 -137 69 -162 242 -50 346 60 55 149 69 224 35z"/>
<path d="M1095 7114 c-88 -69 -213 -163 -277 -210 -65 -48 -118 -92 -118 -99
0 -7 12 -21 28 -31 25 -16 259 -187 1197 -874 193 -141 503 -368 690 -505 187
-137 449 -329 583 -427 l243 -178 366 272 c200 150 582 435 847 633 265 198
708 529 984 735 276 206 502 377 502 381 0 10 -542 415 -552 412 -6 -2 -276
-199 -1088 -794 -206 -151 -413 -303 -460 -337 -47 -34 -204 -149 -350 -256
l-265 -194 -30 22 c-31 24 -402 297 -985 726 -190 139 -385 284 -435 320 -187
139 -700 516 -710 522 -5 3 -82 -50 -170 -118z m190 2 c24 -17 16 -28 -64 -84
-59 -42 -72 -42 -83 -5 -3 13 99 101 118 102 5 1 19 -5 29 -13z m4400 -60 c16
-12 18 -19 10 -42 -12 -33 -25 -39 -50 -20 -16 12 -17 17 -6 45 15 35 19 37
46 17z m-4585 -106 c0 -10 -187 -150 -199 -150 -5 0 -13 10 -17 22 -5 16 0 26
20 41 15 11 57 43 94 72 61 48 69 51 85 37 9 -8 17 -18 17 -22z m4478 3 c35
-17 89 -77 117 -132 26 -51 24 -121 -4 -159 -63 -90 -177 -79 -255 24 -74 96
-82 174 -26 238 48 54 95 62 168 29z m297 -39 c41 -31 75 -58 75 -59 0 -3 -99
-77 -117 -88 -7 -5 -19 3 -29 18 -16 25 -16 27 2 40 63 45 61 38 28 81 -64 81
-58 82 41 8z m-4355 -119 c51 -69 95 -125 97 -125 3 0 18 9 34 21 31 22 43 19
59 -11 9 -16 -3 -28 -86 -89 -53 -39 -100 -71 -105 -71 -4 0 -14 10 -20 22
-10 19 -8 25 22 50 39 33 42 24 -48 145 -30 40 -58 71 -63 68 -5 -3 -14 -21
-20 -40 -11 -34 -12 -35 -40 -20 l-29 15 29 62 c23 49 59 95 76 98 1 0 44 -56
94 -125z m3781 -147 c50 -68 93 -125 95 -127 1 -2 17 8 35 22 l33 25 19 -24
c11 -14 18 -26 16 -28 -2 -2 -48 -36 -102 -76 -93 -69 -98 -72 -112 -54 -21
28 -18 37 15 59 16 11 30 25 30 31 0 6 -31 52 -69 102 l-68 92 -18 -40 c-19
-43 -25 -46 -54 -28 -19 11 -18 13 5 67 20 47 63 101 80 101 2 0 45 -55 95
-122z m-4039 -53 c88 -119 93 -124 112 -110 49 35 52 35 67 9 13 -24 11 -28
-21 -55 -19 -16 -39 -29 -44 -29 -22 0 -142 101 -181 153 -36 49 -45 56 -53
42 -7 -14 -13 -15 -31 -6 -25 14 -26 22 -4 64 15 31 40 56 55 57 4 0 49 -56
100 -125z m831 -75 c51 -38 103 -83 116 -100 13 -18 29 -29 36 -26 8 3 24 -4
37 -14 l23 -19 -30 -25 c-16 -14 -54 -42 -84 -63 l-53 -37 -20 23 -19 24 36
25 c19 14 35 29 35 34 0 7 -102 149 -131 182 -4 4 -17 -10 -28 -33 -19 -36
-24 -40 -41 -31 -10 5 -22 14 -25 20 -6 9 40 110 50 110 3 0 47 -31 98 -70z
m2949 -71 l94 -126 33 26 c32 24 34 25 47 6 8 -10 14 -24 14 -30 0 -17 -180
-147 -196 -141 -30 12 -28 39 4 66 18 15 32 30 32 34 0 6 -106 151 -131 180
-4 5 -16 -9 -26 -30 -9 -21 -19 -41 -20 -43 -1 -2 -14 4 -28 13 l-25 16 25 58
c14 31 38 67 52 79 15 12 28 21 29 20 1 -1 44 -59 96 -128z m-3144 -27 c70
-47 131 -145 132 -210 0 -100 -108 -169 -197 -124 -114 59 -181 221 -121 297
53 68 120 82 186 37z m2887 -52 c70 -34 144 -146 145 -218 0 -42 -22 -85 -57
-110 -64 -44 -118 -40 -182 14 -97 84 -131 207 -74 275 28 33 74 58 107 59 11
0 38 -9 61 -20z m-259 -196 c63 -30 143 -151 144 -216 0 -73 -67 -138 -143
-138 -125 0 -248 205 -183 304 39 61 115 82 182 50z m-2038 -127 c46 -62 87
-119 92 -127 7 -11 15 -8 43 13 l35 27 16 -25 c9 -13 16 -26 16 -29 0 -3 -44
-37 -97 -75 l-97 -71 -21 21 -20 20 38 33 38 32 -66 89 c-37 50 -70 91 -74 93
-4 1 -16 -16 -27 -39 l-20 -41 -24 20 -24 20 24 53 c23 49 63 100 79 99 3 -1
43 -51 89 -113z m257 -7 l60 -45 -37 -3 c-49 -4 -114 40 -157 106 -17 27 -31
52 -31 56 0 8 55 -30 165 -114z m1510 -59 c65 -29 132 -118 149 -198 11 -50
-23 -117 -73 -142 -22 -12 -52 -21 -67 -21 -79 0 -183 114 -200 218 -9 55 25
114 80 142 50 24 60 25 111 1z m-2030 -131 c43 -58 83 -112 89 -120 15 -20
-26 7 -141 92 -51 37 -93 75 -93 83 0 18 52 67 61 57 4 -4 42 -54 84 -112z
m789 -8 c15 -18 15 -20 -5 -38 -27 -25 -22 -88 12 -135 l24 -33 20 66 c24 80
29 86 54 64 19 -17 19 -19 -4 -93 -13 -42 -22 -80 -20 -84 11 -17 57 -15 80 3
29 22 31 44 11 93 -8 19 -12 35 -9 35 3 0 23 -14 44 -31 44 -34 50 -63 22
-109 -20 -34 -81 -70 -117 -70 -66 0 -145 69 -187 166 -25 56 -21 108 11 154
25 35 40 38 64 12z m979 -174 l95 -127 33 25 34 24 17 -22 c21 -28 20 -29 -91
-111 -84 -62 -90 -64 -105 -48 -22 25 -20 34 14 59 17 13 30 27 30 32 0 6 -30
51 -67 100 l-68 90 -19 -38 c-24 -49 -22 -47 -51 -28 l-25 16 31 62 c25 49 68
103 76 95 0 -1 44 -59 96 -129z m-1563 43 c0 -3 -12 -14 -25 -24 -24 -17 -26
-17 -50 0 -13 10 -24 20 -25 23 0 3 15 15 33 28 l32 23 18 -22 c9 -12 17 -24
17 -28z m423 -156 l94 -124 33 24 c19 14 34 24 34 22 1 -1 9 -12 19 -24 18
-21 18 -22 -63 -83 -81 -62 -103 -68 -129 -36 -9 10 -6 17 14 30 14 9 25 21
25 26 0 8 -103 153 -131 184 -4 5 -15 -10 -25 -33 -9 -22 -18 -41 -21 -41 -4
0 -44 20 -51 25 -1 1 11 30 27 64 27 57 54 90 73 91 4 0 50 -56 101 -125z
m886 -93 c46 -62 85 -112 87 -112 3 0 18 10 35 22 30 23 31 23 45 4 8 -11 14
-25 14 -30 -1 -11 -158 -132 -184 -142 -7 -3 -20 6 -29 20 -16 24 -16 25 18
46 19 12 35 26 35 32 0 17 -131 189 -140 183 -4 -2 -13 -18 -20 -35 -14 -33
-27 -37 -54 -17 -17 13 -17 17 13 74 35 69 70 102 86 80 5 -7 48 -63 94 -125z
m-260 -72 c47 -24 87 -69 117 -135 44 -94 23 -164 -61 -205 -42 -20 -51 -21
-87 -11 -82 25 -168 144 -168 233 0 51 23 88 74 119 40 24 77 24 125 -1z
m-252 -202 c43 -25 81 -72 109 -133 22 -46 31 -95 19 -95 -17 0 -69 50 -88 82
-21 39 -32 47 -39 27 -3 -9 -10 -9 -27 0 -17 10 -21 18 -17 36 7 29 -23 50
-59 41 -15 -4 -31 1 -46 13 l-24 20 45 20 c49 22 76 20 127 -11z"/>
<path d="M5461 6894 c-20 -14 -23 -23 -18 -59 2 -24 15 -58 28 -76 l23 -32 27
79 c24 71 25 80 11 92 -21 16 -43 15 -71 -4z"/>
<path d="M5566 6765 c-14 -44 -23 -82 -18 -86 4 -4 19 -11 33 -14 30 -7 69 25
69 57 0 22 -22 76 -42 102 -14 18 -17 14 -42 -59z"/>
<path d="M1766 6358 c-9 -12 -16 -29 -16 -38 0 -26 50 -124 58 -114 5 5 18 42
31 83 19 60 21 75 9 82 -25 16 -66 10 -82 -13z"/>
<path d="M1881 6239 c-12 -39 -20 -77 -17 -85 8 -20 60 -17 79 4 10 10 17 31
17 46 0 29 -35 106 -48 106 -5 0 -18 -32 -31 -71z"/>
<path d="M4670 6300 c-11 -11 -20 -28 -20 -37 0 -28 50 -127 58 -117 5 5 18
42 31 83 19 60 21 75 9 82 -23 15 -57 10 -78 -11z"/>
<path d="M4781 6179 c-12 -39 -20 -77 -17 -85 3 -8 19 -14 40 -14 39 0 56 20
56 67 0 30 -30 95 -46 100 -6 2 -20 -29 -33 -68z"/>
<path d="M4411 6109 c-11 -13 -21 -32 -21 -43 0 -25 34 -101 48 -110 12 -7 65
145 54 155 -4 4 -19 11 -33 14 -20 5 -32 1 -48 -16z"/>
<path d="M4522 5993 c-28 -88 -28 -101 2 -109 73 -18 101 77 43 149 l-23 29
-22 -69z"/>
<path d="M4147 5912 c-21 -23 -22 -64 -1 -105 33 -65 36 -65 65 19 18 54 23
83 16 92 -14 18 -62 15 -80 -6z"/>
<path d="M4261 5801 c-27 -90 -25 -105 16 -109 25 -3 35 2 48 22 20 30 14 65
-19 120 l-23 39 -22 -72z"/>
<path d="M3383 5339 c-29 -11 -45 -43 -37 -76 9 -39 45 -96 54 -86 13 14 52
142 46 152 -9 14 -40 19 -63 10z"/>
<path d="M3471 5199 c-26 -87 -23 -98 25 -99 55 0 71 80 29 143 -14 20 -27 37
-28 37 -1 0 -13 -36 -26 -81z"/>
<path d="M5980 6389 c-135 -99 -281 -207 -325 -238 -44 -32 -242 -176 -440
-321 -198 -145 -484 -354 -635 -465 -151 -110 -467 -341 -702 -513 -234 -172
-431 -312 -437 -312 -6 0 -56 33 -111 73 -55 39 -125 90 -156 112 -31 22 -133
96 -225 165 -93 69 -208 154 -256 189 -49 35 -315 231 -593 434 -278 204 -545
400 -595 437 -568 418 -837 611 -849 608 -24 -5 -606 -443 -602 -453 1 -5 79
-65 172 -133 93 -68 356 -260 584 -426 228 -167 916 -668 1529 -1115 l1113
-811 52 37 c28 20 371 271 761 557 1310 959 2203 1613 2432 1780 84 61 152
114 153 117 0 9 -597 453 -613 456 -7 1 -122 -79 -257 -178z m98 -152 c65 -43
116 -106 127 -157 6 -26 12 -29 69 -39 96 -17 104 -15 110 19 3 17 9 44 12 60
l6 30 56 -45 c31 -25 72 -58 91 -73 l34 -29 -89 -65 c-90 -65 -133 -92 -139
-86 -2 2 1 28 6 58 10 64 8 65 -70 75 -31 3 -63 8 -72 11 -11 3 -24 -7 -39
-31 -47 -75 -161 -115 -340 -116 -117 -1 -210 8 -210 20 0 4 15 12 33 19 33
12 107 68 107 81 0 4 -38 13 -85 20 -47 7 -85 17 -85 22 0 5 10 15 23 24 20
13 35 13 105 3 45 -6 85 -9 87 -6 3 3 8 28 12 56 6 50 5 50 -23 54 -27 3 -23
7 66 75 110 83 113 84 208 20z m-5703 -74 c49 -40 59 -45 76 -35 36 23 76 15
103 -21 24 -31 32 -34 113 -45 49 -7 226 -34 395 -60 278 -44 311 -51 350 -77
23 -16 38 -30 31 -32 -9 -3 -199 25 -800 118 -60 10 -79 9 -110 -3 -44 -18
-58 -15 -94 19 l-26 24 -56 -22 -56 -21 -65 48 c-51 37 -63 50 -55 61 7 7 18
13 25 13 8 0 14 4 14 9 0 10 79 71 91 71 4 0 32 -21 64 -47z m466 -460 c118
-47 209 -128 229 -203 6 -23 9 -44 6 -47 -6 -7 -396 277 -396 287 0 10 103
-14 161 -37z m4716 -83 c210 -33 387 -60 393 -60 17 0 11 -14 -14 -32 -22 -16
-40 -14 -377 38 -195 30 -374 57 -399 60 -73 9 -78 13 -50 34 14 11 34 20 44
20 11 0 192 -27 403 -60z m-3698 -191 c163 -44 295 -139 323 -231 12 -41 10
-40 112 -58 67 -11 76 -6 76 44 0 21 4 27 15 22 31 -12 284 -201 281 -211 -1
-5 -15 -11 -30 -13 -19 -3 -34 5 -54 26 l-27 29 -107 -42 c-59 -24 -109 -41
-111 -39 -2 3 0 29 6 60 5 30 7 57 5 59 -2 3 -39 10 -82 17 -74 11 -79 11 -92
-8 -64 -89 -175 -134 -338 -134 -70 0 -85 3 -118 26 l-38 27 45 39 c25 22 45
43 45 48 0 4 -62 17 -137 29 -133 22 -182 39 -214 77 -11 13 -9 15 12 10 69
-16 360 -56 369 -51 6 3 10 30 10 59 l0 52 -282 43 c-342 52 -344 53 -388 91
-33 30 -34 31 -9 26 14 -3 72 -13 130 -21 219 -34 298 -46 407 -64 62 -10 115
-15 117 -11 5 9 -43 77 -74 104 -11 11 -21 22 -21 26 0 9 72 -4 169 -31z
m2990 -21 c74 -44 141 -126 141 -174 0 -12 5 -14 18 -9 48 21 72 18 102 -15
27 -29 39 -33 147 -51 65 -10 123 -19 128 -19 6 0 -3 -12 -18 -25 -18 -17 -36
-23 -50 -20 -12 3 -61 11 -108 18 -80 13 -87 12 -109 -5 -29 -23 -61 -23 -92
1 l-24 19 -28 -34 c-61 -77 -170 -108 -370 -105 l-68 1 7 68 c4 37 8 71 8 76
1 6 -20 15 -47 21 l-50 11 32 22 c22 16 39 21 56 16 23 -5 26 -3 26 20 0 22
20 41 122 116 67 49 126 90 131 90 5 0 26 -10 46 -22z m-472 -320 c-2 -18 -17
-121 -33 -228 -15 -107 -31 -199 -35 -204 -4 -4 -66 1 -139 13 -118 19 -134
19 -153 6 -33 -23 -75 -19 -103 12 l-25 27 -47 -18 c-85 -32 -88 -29 -22 21
84 63 133 93 155 93 10 0 32 -15 50 -34 29 -31 41 -35 134 -51 56 -9 104 -15
106 -14 2 2 15 87 31 189 23 155 30 187 48 202 31 26 39 22 33 -14z m-1742
-204 c190 -28 246 -40 271 -58 131 -91 213 -152 214 -158 0 -14 -200 -9 -205
5 -3 7 -1 34 4 60 6 35 5 50 -3 52 -19 7 -468 75 -491 75 -21 0 -23 -9 -46
-170 -12 -93 -26 -170 -29 -170 -3 0 -15 6 -25 14 -19 14 -19 17 -2 143 33
234 37 251 55 247 9 -2 125 -20 257 -40z m455 -389 c168 -26 341 -53 385 -60
44 -7 81 -12 82 -11 2 2 7 24 12 50 5 26 13 51 17 56 5 4 40 0 77 -10 157 -41
285 -134 309 -224 13 -49 15 -50 111 -61 31 -4 57 -11 57 -15 0 -4 -12 -15
-26 -25 -21 -14 -35 -15 -80 -7 -53 9 -55 8 -69 -17 -48 -92 -171 -141 -351
-141 -112 0 -114 1 -107 60 l5 47 -78 12 c-73 10 -82 10 -119 -9 -45 -23 -71
-19 -100 16 l-21 24 -103 -40 c-56 -22 -106 -40 -110 -40 -5 0 -5 19 0 43 15
77 18 74 -78 87 -75 11 -90 10 -112 -3 -26 -15 -28 -14 -99 39 -40 30 -72 57
-72 60 0 4 12 3 26 0 18 -5 32 -2 44 9 29 26 80 22 106 -8 18 -21 39 -29 110
-41 48 -9 89 -14 91 -12 2 2 8 31 14 64 l11 61 96 -79 c86 -70 99 -77 113 -64
25 22 67 17 97 -13 21 -21 43 -29 107 -39 44 -7 83 -10 86 -6 8 9 31 163 25
169 -4 4 -210 37 -616 98 -91 14 -189 30 -219 35 -95 17 -98 16 -105 -37 -17
-123 -17 -123 -49 -98 -17 12 -18 20 -7 92 6 43 13 87 15 99 l5 21 107 -18
c60 -9 245 -38 413 -64z"/>
<path d="M1617 3236 c-83 -31 -117 -87 -117 -195 0 -80 11 -115 48 -155 83
-89 263 -72 316 29 17 32 21 58 21 126 0 76 -3 90 -27 127 -16 23 -42 49 -60
58 -43 23 -134 28 -181 10z m133 -102 c9 -9 16 -40 18 -89 4 -68 2 -76 -21
-99 -46 -46 -105 -27 -127 40 -13 37 -7 102 11 136 21 38 85 45 119 12z"/>
<path d="M5730 3240 c-53 -13 -90 -60 -90 -115 0 -56 24 -85 105 -128 43 -23
60 -38 60 -52 0 -16 -8 -21 -44 -23 -24 -2 -61 4 -82 12 -22 9 -42 16 -44 16
-3 0 -5 -22 -5 -48 0 -45 2 -49 33 -60 50 -18 136 -14 184 7 52 24 77 68 70
124 -7 50 -32 76 -107 112 -48 23 -60 33 -58 50 4 26 37 31 92 12 l43 -15 16
43 16 44 -31 10 c-45 16 -119 21 -158 11z"/>
<path d="M92 3038 l3 -203 49 -3 49 -3 -5 151 c-3 82 -4 149 -3 148 2 -2 12
-39 24 -83 12 -44 31 -111 42 -148 l20 -68 52 3 52 3 32 115 c18 63 37 129 41
145 6 20 9 -17 8 -115 l-1 -145 48 -3 47 -3 1 168 c1 92 2 184 3 203 l1 35
-72 3 -72 3 -26 -88 c-15 -48 -35 -114 -44 -146 l-17 -58 -34 113 c-18 62 -37
128 -42 146 l-9 32 -75 0 -74 0 2 -202z"/>
<path d="M648 3233 c-2 -4 -3 -21 -2 -38 1 -16 2 -106 3 -198 l1 -168 117 3
116 3 1 40 1 40 -65 5 -65 5 0 35 0 35 63 3 63 3 -3 42 -3 42 -60 5 c-56 5
-60 7 -60 30 0 24 4 25 64 30 l64 5 0 40 0 40 -116 3 c-63 1 -117 -1 -119 -5z"/>
<path d="M960 3034 l0 -205 48 3 47 3 -2 145 -1 145 41 -145 42 -145 52 -3 52
-3 10 38 c6 21 24 83 40 138 l30 100 0 -137 1 -138 50 0 50 0 0 205 0 205 -73
0 -74 0 -39 -139 c-21 -77 -41 -138 -44 -136 -4 2 -24 65 -45 139 l-39 136
-73 0 -73 0 0 -206z"/>
<path d="M1969 3238 c-2 -5 -2 -64 0 -235 l1 -173 50 0 50 0 2 53 c1 28 2 61
2 72 3 44 32 24 74 -50 l44 -75 59 0 c32 0 59 2 59 5 0 3 -25 43 -56 89 l-55
83 30 31 c26 26 31 38 31 80 0 61 -25 97 -78 112 -31 8 -210 15 -213 8z m162
-88 c38 -21 18 -80 -27 -80 -30 0 -36 12 -28 55 7 37 21 43 55 25z"/>
<path d="M2352 3038 l3 -203 53 -3 52 -3 0 205 0 206 -55 0 -55 0 2 -202z"/>
<path d="M2637 3233 c-6 -10 -127 -389 -127 -397 0 -3 26 -6 58 -6 l59 0 12
40 12 41 67 -3 66 -3 9 -37 9 -38 60 0 c57 0 59 1 52 23 -3 12 -33 104 -66
205 l-59 182 -74 0 c-41 0 -76 -3 -78 -7z m102 -155 l19 -78 -43 0 -42 0 21
86 c11 47 22 82 23 77 1 -4 11 -43 22 -85z"/>
<path d="M2970 3035 l0 -205 130 0 130 0 0 45 0 45 -75 0 -75 0 0 160 0 160
-55 0 -55 0 0 -205z"/>
<path d="M3449 3233 c-1 -4 0 -73 1 -153 2 -158 9 -183 63 -224 23 -17 43 -21
107 -21 64 0 84 4 107 21 56 42 63 67 65 230 l2 149 -53 0 -53 0 -2 -136 c-1
-119 -3 -140 -20 -158 -28 -30 -71 -28 -93 6 -15 22 -18 51 -19 158 l-2 130
-51 3 c-28 2 -51 -1 -52 -5z"/>
<path d="M3880 3034 l0 -205 48 3 47 3 5 133 5 132 70 -135 70 -135 70 2 70 3
3 203 2 202 -50 0 -50 0 0 -137 -1 -138 -72 137 -72 138 -72 0 -73 0 0 -206z"/>
<path d="M4360 3034 l0 -205 53 3 52 3 3 203 2 202 -55 0 -55 0 0 -206z"/>
<path d="M4520 3229 c0 -5 28 -98 62 -205 l62 -194 66 0 66 0 62 194 c34 107
62 200 62 205 0 7 -24 11 -58 11 l-58 0 -33 -127 c-18 -71 -35 -135 -38 -143
-3 -8 -21 49 -40 128 l-36 142 -58 0 c-35 0 -59 -4 -59 -11z"/>
<path d="M4952 3038 l3 -203 118 -3 117 -3 1 28 c1 15 2 35 3 43 1 11 -14 16
-64 20 l-65 5 -3 37 -3 37 63 3 c69 3 65 -1 59 73 -1 12 -15 15 -61 15 -60 0
-60 0 -60 30 0 29 0 29 68 32 l67 3 0 40 0 40 -123 3 -122 3 2 -203z"/>
<path d="M5267 3233 c-2 -5 -4 -96 -3 -203 l1 -195 54 0 55 0 1 70 c1 97 19
97 74 0 l42 -75 60 0 c32 0 59 2 59 5 0 3 -25 43 -56 89 l-55 83 30 31 c26 26
31 38 31 80 0 61 -25 97 -78 112 -43 11 -209 14 -215 3z m164 -83 c38 -21 21
-80 -25 -80 -30 0 -31 2 -30 40 1 22 2 42 3 45 2 9 31 6 52 -5z"/>
<path d="M5982 3038 l3 -203 53 -3 52 -3 0 205 0 206 -55 0 -55 0 2 -202z"/>
<path d="M6150 3195 l0 -45 50 0 49 0 3 -157 3 -158 53 -3 52 -3 0 160 0 161
50 0 50 0 0 45 0 45 -155 0 -155 0 0 -45z"/>
<path d="M6480 3234 c0 -3 29 -58 65 -123 65 -118 65 -118 65 -200 l0 -81 55
0 55 0 0 82 c0 81 0 81 65 200 36 66 65 121 65 124 0 2 -26 4 -58 4 l-59 0
-34 -77 -35 -77 -34 77 -34 77 -58 0 c-32 0 -58 -2 -58 -6z"/>
<path d="M343 2625 c-73 -20 -121 -47 -166 -90 -90 -87 -129 -190 -130 -340
-1 -273 112 -417 350 -447 74 -9 102 -8 171 6 137 28 132 22 132 139 0 91 -2
99 -17 92 -106 -44 -225 -57 -286 -31 -73 31 -107 104 -107 230 0 122 26 191
93 240 41 30 143 27 222 -7 l60 -25 33 85 c18 47 31 91 28 98 -2 7 -33 23 -68
35 -83 28 -241 36 -315 15z"/>
<path d="M1115 2621 c-80 -23 -113 -42 -162 -90 -121 -122 -151 -398 -63 -585
69 -145 242 -222 445 -196 152 19 268 103 314 224 54 144 46 349 -18 474 -46
91 -122 148 -236 178 -69 19 -207 16 -280 -5z m229 -194 c22 -12 48 -38 58
-59 45 -86 47 -256 5 -339 -31 -60 -65 -82 -134 -87 -48 -3 -64 0 -92 20 -71
48 -90 99 -91 234 0 133 36 213 110 243 43 17 103 12 144 -12z"/>
<path d="M1850 2623 c0 -5 -1 -200 -2 -436 -3 -401 -2 -427 15 -428 22 0 164
0 178 1 8 0 10 90 7 310 -1 171 -1 304 2 298 2 -7 43 -147 90 -312 l85 -299
110 2 c61 1 113 5 116 9 3 4 43 142 89 307 45 165 84 301 85 303 1 2 0 -137
-3 -307 l-5 -310 102 -3 c56 -2 106 -1 111 0 6 2 10 164 10 438 l0 434 -155 0
c-152 0 -156 0 -164 -22 -5 -13 -46 -151 -91 -308 -45 -157 -84 -287 -86 -289
-5 -5 0 -21 -100 322 l-87 297 -154 0 c-84 0 -153 -3 -153 -7z"/>
<path d="M3030 2196 l0 -436 115 0 115 0 0 139 c0 159 -5 151 95 151 182 0
305 119 305 295 0 84 -25 151 -75 199 -69 67 -115 78 -352 84 l-203 4 0 -436z
m336 234 c37 -14 53 -38 54 -78 0 -69 -46 -112 -120 -112 l-40 0 0 93 c0 52 3
97 7 100 10 10 68 8 99 -3z"/>
<path d="M3797 2623 c-10 -10 -8 -444 3 -553 14 -148 58 -225 159 -279 109
-58 301 -62 404 -9 61 31 123 94 148 151 23 51 24 60 27 375 l3 322 -115 0
-114 0 -4 -297 c-3 -265 -5 -302 -21 -331 -32 -59 -120 -79 -187 -44 -62 33
-69 73 -70 395 l0 277 -113 0 c-63 0 -117 -3 -120 -7z"/>
<path d="M4660 2535 l0 -95 78 -1 c42 -1 91 -2 107 -3 l30 -1 3 -335 2 -335
106 -5 c58 -3 110 -3 115 1 5 3 10 156 11 340 l3 334 85 2 c47 1 95 2 108 2
22 1 23 3 20 94 l-3 92 -332 3 -333 2 0 -95z"/>
<path d="M5450 2196 l0 -435 243 -3 c134 -2 251 -2 261 0 14 3 16 16 14 95
l-3 92 -141 5 -141 5 0 77 0 77 131 3 131 3 3 93 3 92 -134 0 -135 0 3 68 2
67 142 3 142 3 -3 92 -3 92 -257 3 -258 2 0 -434z"/>
<path d="M6120 2196 c0 -240 3 -436 8 -436 4 0 57 -1 117 -2 l110 -2 3 158 3
157 31 -3 c28 -3 37 -15 114 -147 46 -79 87 -148 92 -153 10 -10 248 -15 258
-6 3 4 -49 88 -116 188 l-121 181 50 45 c66 60 91 113 91 195 0 81 -24 133
-81 182 -69 60 -115 69 -351 75 l-208 4 0 -436z m339 244 c44 -12 60 -36 61
-87 0 -63 -30 -92 -102 -100 l-58 -6 0 102 0 101 33 0 c17 0 47 -4 66 -10z"/>
<path d="M2051 1600 c-177 -38 -261 -182 -200 -344 26 -71 74 -113 204 -178
145 -73 170 -103 125 -148 -32 -32 -152 -28 -260 10 -47 16 -87 30 -91 30 -3
0 -5 -46 -5 -102 l1 -103 70 -24 c100 -35 272 -35 359 -1 80 31 146 97 169
169 21 65 21 93 2 158 -22 72 -77 124 -194 180 -53 25 -111 56 -128 70 -41 30
-44 66 -8 89 33 21 128 14 206 -15 30 -12 57 -21 61 -21 10 0 70 161 65 175
-16 39 -272 77 -376 55z"/>
<path d="M2847 1600 c-20 -5 -59 -21 -86 -34 -140 -71 -208 -190 -218 -381
-14 -268 106 -436 332 -465 92 -12 174 -6 260 21 l60 18 -2 98 c-1 54 -2 99
-3 100 0 0 -30 -10 -67 -23 -46 -16 -90 -24 -136 -24 -118 0 -163 36 -193 151
-33 130 8 287 86 333 49 29 136 26 217 -7 l62 -25 36 90 c20 50 32 94 28 99
-4 4 -37 17 -73 30 -73 24 -238 35 -303 19z"/>
<path d="M5764 1600 c-100 -21 -211 -105 -255 -192 -29 -56 -59 -182 -59 -244
0 -69 23 -188 49 -246 76 -177 320 -251 564 -172 l47 16 0 100 c0 76 -3 98
-12 94 -127 -52 -265 -61 -324 -19 -51 36 -68 84 -72 199 -2 56 1 119 8 143
15 57 72 118 121 131 44 12 122 2 184 -24 21 -9 43 -16 50 -16 15 0 80 169 68
180 -4 5 -37 18 -73 31 -72 24 -226 34 -296 19z"/>
<path d="M3370 1160 l0 -440 115 0 115 0 0 440 0 440 -115 0 -115 0 0 -440z"/>
<path d="M3795 1588 c-3 -7 -4 -203 -3 -436 l3 -423 238 0 c130 1 246 1 257 1
19 0 20 7 20 95 l0 95 -140 0 -140 0 0 80 0 80 130 0 130 0 0 95 0 95 -130 0
-130 0 0 70 0 70 140 0 140 0 0 95 0 95 -255 0 c-195 0 -257 -3 -260 -12z"/>
<path d="M4465 1588 c-3 -7 -4 -203 -3 -436 l3 -424 103 -1 104 -2 -4 306 -3
307 67 -127 c36 -69 108 -207 160 -306 75 -145 97 -180 113 -179 11 1 82 2
157 2 l137 2 -2 433 -2 432 -103 0 -103 0 0 -300 0 -300 -76 145 c-42 80 -113
215 -158 300 l-82 155 -152 3 c-116 2 -153 0 -156 -10z"/>
<path d="M6280 1167 c0 -239 2 -436 4 -438 2 -2 118 -3 258 -1 l253 3 0 92 -1
92 -142 3 -142 3 0 79 0 79 133 3 132 3 0 90 0 90 -132 3 -133 3 0 69 0 69
142 3 142 3 -1 90 -1 90 -256 3 -256 2 0 -433z"/>
<path d="M4358 448 c-53 -14 -98 -68 -98 -116 0 -64 29 -102 111 -147 53 -29
74 -46 74 -60 0 -17 -8 -20 -52 -23 -30 -2 -66 3 -88 13 -21 8 -39 15 -41 15
-2 0 -4 -24 -4 -54 0 -52 1 -55 31 -65 44 -15 153 -14 192 3 99 42 117 164 33
226 -11 8 -45 29 -76 45 -30 17 -56 38 -58 47 -6 32 67 34 138 4 12 -5 20 5
33 39 l16 46 -32 14 c-46 19 -135 26 -179 13z"/>
<path d="M4755 445 c-92 -36 -129 -107 -124 -237 3 -72 8 -91 32 -127 36 -55
92 -81 172 -81 86 0 128 15 168 60 44 48 61 105 55 191 -10 129 -77 198 -201
205 -40 2 -76 -2 -102 -11z m150 -115 c24 -24 34 -135 16 -179 -25 -58 -107
-69 -144 -19 -28 37 -30 142 -4 181 32 50 91 57 132 17z"/>
<path d="M5285 449 c-102 -25 -155 -104 -155 -228 0 -92 22 -146 74 -186 30
-23 50 -29 109 -33 40 -2 88 0 107 5 34 9 35 11 38 62 3 48 1 53 -15 46 -10
-4 -45 -10 -78 -12 -55 -4 -62 -3 -84 21 -49 53 -36 183 23 221 20 14 33 15
68 7 24 -5 50 -13 59 -16 13 -6 20 3 33 40 9 26 16 49 16 50 0 1 -15 7 -32 13
-53 16 -120 20 -163 10z"/>
<path d="M5550 225 l0 -225 60 0 60 0 0 225 0 225 -60 0 -60 0 0 -225z"/>
<path d="M5770 225 l0 -226 132 3 132 3 0 45 0 45 -72 3 -72 3 0 44 0 45 68 0
67 0 0 43 0 42 -67 3 -68 3 0 34 0 35 70 0 c76 0 82 6 77 70 l-2 25 -132 3
-133 3 0 -226z"/>
<path d="M6080 400 l0 -50 55 0 55 0 0 -175 0 -175 60 0 60 0 0 175 0 175 55
0 55 0 0 50 0 50 -170 0 -170 0 0 -50z"/>
<path d="M6510 315 l71 -136 2 -87 2 -87 63 -3 62 -3 0 92 0 92 70 129 c39 71
70 131 70 134 0 2 -28 4 -63 4 l-63 0 -39 -81 -40 -81 -37 81 -38 81 -66 0
-66 0 72 -135z"/>
<path d="M50 230 l0 -210 2015 0 2015 0 0 210 0 210 -2015 0 -2015 0 0 -210z"/>
</g>
</svg>
