<?xml version="1.0" standalone="no"?>
<!DOCTYPE svg PUBLIC "-//W3C//DTD SVG 20010904//EN"
 "http://www.w3.org/TR/2001/REC-SVG-20010904/DTD/svg10.dtd">
<svg version="1.0" xmlns="http://www.w3.org/2000/svg"
 width="200.000000pt" height="200.000000pt" viewBox="0 0 200.000000 200.000000"
 preserveAspectRatio="xMidYMid meet">

<g transform="translate(0.000000,200.000000) scale(0.100000,-0.100000)"
fill="#000000" stroke="none">
<path d="M545 1323 c-247 -360 -450 -659 -450 -664 0 -10 892 -639 906 -639 6
0 155 102 332 227 177 124 376 265 442 311 66 46 124 88 129 92 4 5 -135 217
-310 472 -175 255 -378 551 -452 658 -73 107 -137 196 -140 197 -4 1 -209
-293 -457 -654z m889 -37 l425 -619 -22 -17 c-12 -9 -205 -145 -429 -303
l-407 -286 -430 302 c-255 179 -426 306 -422 313 39 66 848 1233 853 1231 4
-1 199 -280 432 -621z"/>
<path d="M704 1438 c-159 -232 -342 -500 -407 -594 l-117 -172 177 -125 c98
-68 281 -197 407 -286 126 -88 232 -161 237 -161 4 0 162 109 351 242 189 133
371 262 406 286 38 27 60 48 55 55 -4 7 -79 118 -168 247 -89 129 -268 391
-399 583 -131 191 -242 347 -245 347 -4 0 -137 -190 -297 -422z m468 137 c92
-135 163 -245 158 -245 -4 0 -37 9 -73 20 l-64 20 -97 -36 -96 -36 -63 47
c-69 52 -67 51 -190 16 -56 -16 -68 -18 -63 -6 7 20 310 464 316 464 3 0 80
-110 172 -244z m-206 -282 l31 -23 93 35 c50 19 97 35 103 35 6 0 47 -11 92
-25 l81 -24 203 -296 c112 -163 204 -302 205 -310 1 -16 -764 -557 -780 -551
-6 2 -182 125 -392 273 -229 160 -380 273 -377 280 7 20 415 612 426 619 5 3
56 18 112 33 l102 28 35 -25 c19 -14 49 -36 66 -49z"/>
<path d="M700 1001 l0 -231 48 -34 47 -35 3 187 2 186 40 -64 39 -65 1 -151 0
-151 44 -31 c24 -18 47 -32 50 -32 3 0 6 146 6 325 l0 325 -50 0 -49 0 -3 -62
-3 -63 -35 60 -36 60 -52 3 -52 3 0 -230z"/>
<path d="M1030 904 l0 -326 83 58 c45 32 99 69 119 83 36 25 37 28 38 84 0 66
6 66 -87 -1 l-63 -44 0 236 0 236 -45 0 -45 0 0 -326z"/>
<path d="M382 807 c-93 -130 -95 -134 -78 -140 11 -4 26 9 47 39 17 25 33 43
36 40 3 -2 -10 -26 -27 -51 -25 -36 -29 -49 -20 -55 15 -9 18 -6 103 117 31
44 57 86 57 92 0 25 -27 8 -57 -36 -18 -26 -33 -41 -33 -34 0 7 13 32 30 56
23 34 27 44 15 49 -10 3 -34 -22 -73 -77z"/>
<path d="M1527 872 c-28 -17 -33 -49 -7 -45 9 2 40 -33 74 -83 64 -92 71 -98
86 -89 6 4 -17 46 -55 100 -38 54 -63 100 -59 108 9 23 -9 27 -39 9z"/>
<path d="M1410 785 c-17 -20 -6 -57 30 -95 21 -22 35 -30 49 -25 14 4 25 -2
40 -24 26 -36 27 -50 2 -27 -23 21 -37 5 -21 -24 8 -15 19 -20 38 -18 37 4 40
39 8 89 -21 31 -33 39 -55 39 -21 0 -36 8 -50 29 -26 36 -27 50 -3 28 26 -23
46 -7 26 21 -18 25 -46 29 -64 7z"/>
<path d="M511 671 c-56 -81 -67 -102 -56 -111 10 -8 16 -7 24 7 10 16 11 15 9
-6 -6 -50 23 -29 91 68 39 55 71 104 71 110 0 12 -32 31 -54 31 -8 0 -46 -45
-85 -99z m54 -6 c-26 -36 -50 -64 -52 -61 -3 3 16 35 42 71 26 37 49 64 52 61
3 -2 -16 -34 -42 -71z"/>
<path d="M1296 705 c-9 -9 -16 -20 -16 -24 0 -15 122 -182 137 -188 21 -8 48
10 50 33 3 23 -116 188 -139 192 -8 2 -23 -4 -32 -13z m89 -100 c30 -44 52
-81 50 -84 -6 -5 -2 -10 -64 77 -28 39 -51 77 -51 84 0 15 2 13 65 -77z"/>
<path d="M671 575 c-65 -92 -73 -118 -40 -136 18 -9 25 -7 47 15 24 24 25 26
7 32 -11 5 -20 3 -23 -4 -2 -7 -8 -12 -14 -12 -11 0 5 27 65 108 21 30 41 51
44 48 3 -3 0 -12 -6 -20 -9 -10 -9 -16 -1 -21 18 -11 41 16 38 44 -2 20 -9 27
-30 29 -23 3 -34 -8 -87 -83z"/>
<path d="M1178 626 c-10 -7 -18 -16 -18 -20 0 -4 33 -54 73 -111 55 -77 77
-101 87 -95 12 7 8 18 -19 55 -18 25 -31 48 -28 51 3 3 19 -15 37 -40 20 -27
38 -42 46 -39 8 3 14 7 14 9 0 12 -66 94 -76 94 -6 0 -14 13 -17 28 -6 31 -49
82 -69 82 -7 0 -21 -7 -30 -14z m57 -52 c24 -37 11 -41 -15 -5 -12 17 -17 31
-12 31 5 0 17 -12 27 -26z"/>
<path d="M864 537 c-12 -17 -45 -64 -73 -104 -41 -58 -48 -73 -37 -82 11 -9
20 -2 42 34 16 25 33 45 38 45 4 0 1 -11 -8 -25 -9 -14 -23 -36 -32 -49 -11
-18 -12 -26 -3 -31 13 -8 50 33 74 83 9 17 19 32 23 32 4 0 20 21 36 46 19 31
25 49 19 55 -7 7 -21 -4 -43 -35 -19 -25 -38 -46 -43 -46 -5 0 7 22 26 49 20
27 33 52 30 55 -13 13 -29 4 -49 -27z"/>
<path d="M1073 553 c-13 -8 -23 -19 -23 -24 0 -13 141 -209 150 -209 21 0 17
21 -11 60 -29 39 -29 43 -14 60 22 25 11 44 -17 29 -17 -9 -24 -7 -44 17 -28
34 -29 40 -9 48 18 7 20 36 3 35 -7 0 -23 -7 -35 -16z"/>
</g>
</svg>
