<?xml version="1.0" standalone="no"?>
<!DOCTYPE svg PUBLIC "-//W3C//DTD SVG 20010904//EN"
 "http://www.w3.org/TR/2001/REC-SVG-20010904/DTD/svg10.dtd">
<svg version="1.0" xmlns="http://www.w3.org/2000/svg"
 width="900.000000pt" height="852.000000pt" viewBox="0 0 900.000000 852.000000"
 preserveAspectRatio="xMidYMid meet">

<g transform="translate(0.000000,852.000000) scale(0.100000,-0.100000)"
fill="#000000" stroke="none">
<path d="M4245 8514 c-970 -63 -1875 -448 -2590 -1101 -159 -145 -189 -194
-189 -307 -1 -52 5 -84 21 -118 l21 -47 -82 -46 c-94 -53 -179 -123 -202 -167
-8 -16 -27 -64 -40 -106 -14 -43 -51 -124 -82 -182 -31 -58 -62 -118 -70 -133
-9 -18 -14 -60 -13 -120 l0 -91 -54 -49 c-64 -57 -145 -174 -175 -254 -32 -84
-53 -216 -47 -297 l5 -69 -90 -115 c-285 -368 -449 -620 -583 -898 -77 -159
-88 -214 -61 -306 21 -73 84 -142 199 -220 162 -109 304 -261 368 -394 35 -75
46 -81 148 -86 53 -3 76 -9 93 -24 57 -51 138 -81 240 -91 60 -5 68 -4 75 12
4 12 2 20 -8 24 -26 8 -71 65 -106 134 -19 38 -33 70 -31 72 27 24 250 116
346 143 l69 20 47 -29 c26 -16 49 -35 52 -42 2 -7 -2 -40 -11 -73 -26 -101
-36 -228 -25 -316 l10 -80 -45 -43 c-24 -24 -61 -69 -81 -100 -20 -32 -40 -53
-44 -49 -10 10 -70 189 -70 209 0 7 -6 18 -14 24 -11 9 -17 8 -30 -4 -23 -23
-65 -165 -72 -245 -6 -58 -10 -70 -25 -70 -58 0 -77 -39 -91 -185 -14 -148 0
-263 39 -341 34 -66 376 -425 433 -454 l38 -19 -21 -43 c-29 -58 -34 -160 -12
-227 21 -63 78 -127 241 -270 625 -549 1401 -903 2220 -1011 l90 -12 29 -57
c39 -74 136 -169 207 -203 156 -76 305 -76 458 0 70 34 167 131 204 203 l30
56 123 17 c803 107 1571 459 2197 1006 201 177 247 241 254 360 3 49 -1 79
-17 120 -20 54 -17 69 14 70 23 0 85 63 105 107 124 264 163 336 209 387 28
30 58 70 68 88 26 51 23 131 -10 202 -25 54 -26 63 -15 95 30 87 8 268 -42
349 -26 42 -43 32 -60 -35 -20 -81 -71 -203 -85 -203 -7 0 -43 32 -80 71 -115
122 -172 269 -182 465 l-6 111 69 19 c52 14 102 19 204 19 149 0 193 -7 229
-34 l24 -18 -29 -54 c-16 -30 -55 -80 -87 -113 -71 -72 -70 -89 5 -80 78 9
193 41 257 71 39 19 74 27 116 28 80 2 123 26 215 120 41 42 169 156 283 252
161 136 214 186 237 226 61 107 51 198 -43 387 -103 207 -420 724 -529 863
-41 52 -58 113 -65 242 -3 61 -11 121 -18 135 -7 14 -53 79 -101 145 -49 66
-122 170 -163 231 l-74 111 -2 139 c-2 154 -10 189 -72 307 -56 107 -141 187
-306 286 l-137 83 25 30 c78 92 83 240 12 345 -64 95 -385 366 -627 529 -587
397 -1220 625 -1945 704 -103 11 -564 21 -670 14z m637 -179 c758 -73 1453
-343 2062 -804 131 -98 286 -232 364 -314 56 -59 62 -70 62 -107 0 -53 -11
-73 -76 -141 -60 -61 -60 -62 -49 -194 18 -193 -88 -380 -264 -468 -93 -47
-166 -61 -261 -52 -118 11 -115 12 -185 -53 -67 -63 -109 -81 -160 -68 -14 4
-76 52 -138 107 -393 352 -816 560 -1322 650 -171 30 -527 38 -715 15 -548
-67 -1022 -288 -1451 -678 -53 -48 -108 -90 -123 -94 -52 -13 -94 5 -161 68
-70 65 -67 64 -185 53 -194 -19 -385 88 -473 264 -47 93 -61 166 -52 261 13
128 13 126 -47 188 -64 66 -78 89 -78 131 0 50 15 74 91 148 519 502 1239 878
1958 1023 131 27 392 64 511 73 133 10 552 6 692 -8z m-3248 -1464 c3 -5 3
-37 -1 -71 l-6 -61 -56 -28 c-31 -15 -82 -38 -114 -51 l-58 -23 -60 -118 c-32
-65 -59 -121 -59 -123 0 -3 19 -10 43 -17 56 -15 119 -81 142 -148 l16 -50 68
67 c88 89 177 148 196 132 11 -9 4 -22 -44 -68 -47 -46 -111 -142 -111 -166 0
-3 13 -12 28 -20 27 -14 31 -13 88 25 71 48 148 89 168 89 16 0 76 -32 76 -40
0 -3 -27 -20 -60 -39 -32 -18 -73 -49 -91 -67 l-33 -34 20 -21 c17 -16 25 -18
48 -9 39 15 108 12 132 -5 51 -35 71 -152 37 -222 -19 -41 -87 -88 -141 -97
-87 -16 -90 -27 -36 -107 34 -50 34 -54 17 -67 -37 -26 -125 -45 -194 -40 -57
4 -90 15 -196 66 -70 33 -146 66 -167 72 -82 26 -280 6 -317 -31 -26 -26 -42
-96 -36 -157 5 -51 4 -55 -32 -91 -26 -26 -47 -62 -66 -114 -18 -49 -41 -91
-66 -118 -22 -23 -38 -43 -37 -45 2 -1 31 2 65 7 119 17 213 61 313 147 l44
39 34 -20 c78 -46 181 -17 281 80 l55 53 50 -25 c96 -47 221 -41 338 15 50 24
60 20 19 -9 -58 -42 -157 -81 -233 -92 l-78 -11 39 -47 c42 -51 103 -143 97
-148 -2 -2 -25 7 -52 21 -50 25 -130 49 -197 61 l-39 6 7 -33 c10 -44 49 -131
75 -168 12 -17 20 -30 18 -30 -2 0 -27 9 -57 21 -62 23 -203 36 -241 21 -24
-9 -24 -10 40 -77 110 -114 258 -206 357 -221 24 -3 45 -9 47 -13 3 -4 -19
-19 -47 -34 -29 -15 -63 -36 -77 -47 l-25 -19 36 -15 c51 -21 126 -29 184 -17
27 5 51 8 52 7 1 -1 -49 -29 -112 -61 -87 -46 -110 -62 -98 -69 30 -17 229 7
337 40 18 6 19 2 13 -67 -4 -59 -26 -146 -43 -167 -1 -2 -24 13 -51 34 -49 38
-170 100 -179 92 -2 -3 9 -34 25 -69 39 -83 55 -181 41 -257 -18 -101 -19 -95
35 -122 39 -19 69 -25 142 -28 l93 -4 10 -42 c39 -156 119 -371 195 -523 46
-92 82 -170 79 -174 -2 -4 -22 -10 -44 -14 -22 -4 -40 -10 -40 -13 0 -4 24
-20 53 -36 l52 -29 -30 -13 c-16 -7 -76 -25 -132 -41 -57 -15 -103 -31 -103
-34 0 -4 16 -21 36 -39 20 -17 35 -33 33 -34 -12 -11 -214 -80 -263 -90 l-59
-12 34 -27 c18 -14 30 -29 26 -33 -4 -5 -47 -10 -96 -12 l-89 -4 -5 -45 c-2
-24 -7 -47 -10 -50 -12 -12 -121 -3 -143 12 -22 14 -23 14 -30 -21 -6 -33 -8
-35 -38 -28 -17 3 -49 15 -70 26 l-39 20 7 -64 c4 -34 10 -76 13 -93 5 -29 3
-29 -41 20 -25 28 -64 76 -88 107 -23 32 -43 56 -44 55 -5 -6 19 -145 35 -204
11 -37 22 -79 26 -93 6 -24 6 -24 -19 5 -60 69 -106 208 -106 324 0 61 1 63
23 57 64 -18 104 -17 164 3 34 12 75 21 91 21 58 0 93 13 136 51 42 37 48 39
110 39 97 0 168 30 236 100 30 31 66 60 80 65 75 22 169 114 186 181 7 28 -11
155 -38 259 -23 95 -83 227 -133 295 -32 43 -42 50 -93 61 -86 20 -329 17
-437 -5 -186 -36 -402 -120 -576 -221 -76 -45 -100 -50 -172 -39 -32 6 -41 14
-69 63 -36 65 -70 111 -147 199 -51 59 -53 63 -33 69 14 3 29 22 41 47 39 89
118 153 221 179 53 14 55 15 54 48 -3 52 14 173 30 219 16 47 13 46 -59 -21
-36 -33 -49 -38 -124 -49 -172 -24 -345 -90 -438 -166 -23 -19 -44 -34 -48
-34 -14 0 -45 88 -45 130 0 36 15 75 80 205 121 242 286 494 549 835 l119 155
-5 96 c-6 108 11 210 51 294 36 78 113 172 176 217 l58 41 -4 56 c-3 31 -7 71
-9 89 -3 26 12 67 69 185 41 84 88 190 106 237 l32 85 81 47 c45 26 109 67
142 92 64 48 71 51 79 37z m3196 -157 c1040 -149 1847 -971 1985 -2017 17
-135 20 -418 5 -552 -111 -972 -816 -1773 -1764 -2006 -203 -49 -328 -63 -561
-63 -380 1 -687 71 -1020 234 -706 345 -1186 1017 -1290 1803 -30 236 -16 553
36 797 53 245 185 557 326 770 402 606 1017 976 1748 1050 124 12 396 4 535
-16z m2734 -394 c25 -29 61 -84 81 -122 41 -77 66 -94 154 -105 44 -5 48 -8
66 -51 23 -56 109 -187 135 -205 11 -7 40 -54 64 -104 30 -59 63 -107 96 -139
43 -43 50 -54 50 -89 0 -68 20 -207 36 -257 8 -26 30 -66 48 -90 145 -192 435
-665 542 -885 31 -62 47 -110 51 -148 6 -55 5 -57 -14 -47 -11 6 -25 18 -33
26 -16 20 -29 20 -51 0 -16 -14 -22 -12 -76 24 -79 53 -160 82 -233 82 -55 0
-65 -4 -149 -58 -89 -58 -100 -72 -55 -72 38 0 126 -37 166 -70 48 -39 97
-140 105 -212 l6 -56 -128 -124 c-70 -67 -141 -129 -158 -136 -70 -30 -175 13
-345 140 -59 44 -123 87 -142 96 -122 52 -414 71 -574 37 -94 -20 -186 -55
-251 -96 -26 -17 -49 -28 -51 -26 -3 2 3 26 13 53 17 44 23 50 78 72 127 51
241 73 410 80 l160 6 -65 13 c-36 7 -137 16 -225 20 -151 6 -161 7 -178 30
-24 30 -36 29 -85 -7 -23 -16 -44 -30 -46 -30 -2 0 1 18 6 39 11 41 15 45 118
89 45 19 46 21 69 101 13 45 22 84 19 86 -2 2 -38 21 -79 42 l-74 38 -3 48
c-2 26 1 47 6 47 5 0 64 -25 130 -55 67 -30 124 -55 127 -55 3 0 5 13 5 29 0
43 49 87 118 108 l57 16 -210 39 c-115 21 -216 40 -222 43 -7 2 -13 16 -13 30
l0 27 68 -8 c98 -11 346 -8 427 5 92 15 210 55 260 87 l40 25 -40 -6 c-22 -3
-96 -8 -164 -12 -93 -5 -122 -3 -117 5 4 7 13 12 20 12 24 0 172 100 221 149
27 28 47 51 45 51 -3 0 -34 -10 -70 -21 -72 -23 -329 -40 -300 -19 8 6 43 27
78 48 85 51 190 129 202 151 8 16 -9 13 -110 -20 -128 -41 -259 -69 -319 -69
-34 0 -30 4 57 47 51 26 107 60 125 75 l32 29 -90 -6 c-49 -4 -102 -9 -117
-11 -35 -7 -35 5 -2 56 15 22 25 42 23 44 -2 1 -34 17 -71 33 -87 41 -131 71
-201 140 -51 50 -117 158 -117 190 0 6 23 7 57 2 32 -4 58 -7 59 -6 1 1 -2 27
-8 57 -5 30 -8 98 -6 150 5 115 32 185 90 235 40 33 40 33 17 45 -12 7 -59 25
-103 41 l-81 29 135 -4 c74 -3 146 -8 160 -12 24 -6 24 -5 -8 28 -19 20 -59
48 -90 64 l-57 29 40 3 c51 4 190 -16 233 -33 17 -8 32 -11 32 -7 0 12 -51 85
-83 120 -17 17 -25 32 -19 32 26 0 135 -63 176 -101 42 -38 87 -51 101 -29 9
14 -22 138 -50 198 l-24 53 24 -19 c13 -10 44 -43 69 -72z m-804 -437 c16 -75
64 -167 109 -205 l36 -30 -54 6 c-115 12 -150 79 -120 229 7 31 13 57 15 57 1
0 8 -26 14 -57z m-5514 -592 c15 -11 30 -19 34 -16 4 2 5 27 2 54 -8 83 28
152 72 135 38 -14 31 -160 -9 -200 -39 -38 -95 -33 -147 14 -67 60 -111 176
-70 184 13 2 26 -16 55 -74 20 -42 49 -86 63 -97z m583 -1697 c23 -29 21 -35
-28 -128 -31 -57 -31 -62 -29 -180 1 -106 -1 -126 -20 -161 -48 -92 -104 -145
-154 -145 -43 0 -45 32 -7 104 32 59 33 65 39 216 5 135 9 161 30 203 52 109
124 148 169 91z m5398 -44 c97 -48 97 -49 112 -330 10 -181 28 -241 94 -316
l42 -47 -30 7 c-88 21 -202 123 -252 224 -24 49 -25 60 -19 139 l6 85 -56 51
c-62 58 -84 92 -84 134 0 36 9 48 45 67 44 23 74 20 142 -14z m-6253 -96 c14
-30 35 -69 47 -86 20 -28 21 -30 3 -25 -10 3 -37 10 -59 16 -45 12 -125 60
-125 76 0 7 92 72 107 75 1 0 13 -25 27 -56z m7117 -13 l64 -29 -65 -31 c-60
-28 -179 -65 -187 -58 -1 2 9 19 23 38 14 19 37 56 50 82 19 37 28 46 38 38 7
-6 42 -24 77 -40z m-1308 -180 c-8 -107 9 -173 56 -220 53 -53 159 -121 296
-189 233 -116 423 -173 585 -177 l95 -1 18 -49 c22 -59 16 -92 -21 -107 -65
-28 -116 -76 -170 -158 -95 -146 -127 -166 -177 -116 -46 46 -39 171 21 336
13 37 24 70 24 73 0 3 -25 -3 -57 -14 -81 -28 -210 -52 -238 -45 -46 12 -51
42 -16 108 30 59 30 60 8 54 -50 -14 -204 -29 -230 -23 -23 6 -27 13 -27 43 0
19 9 52 20 74 l20 38 -58 -20 c-77 -28 -159 -29 -178 -3 -18 24 -11 47 32 108
19 26 32 47 30 47 -2 0 -23 -7 -46 -15 -76 -27 -150 -16 -150 21 0 6 24 52 53
101 28 49 65 117 81 151 16 34 31 62 32 62 1 0 0 -35 -3 -79z m-5563 -187 c0
-25 59 -158 100 -226 l38 -63 -24 -13 c-25 -13 -115 -19 -132 -8 -32 20 -40
204 -12 299 11 36 30 43 30 11z m6637 -154 c7 -96 -9 -157 -43 -170 -28 -11
-134 -14 -134 -4 0 3 12 20 26 37 29 35 85 144 104 202 7 22 15 44 18 49 10
17 24 -38 29 -114z m-5221 -240 c8 0 61 -44 117 -97 56 -53 136 -124 177 -156
343 -274 790 -460 1255 -522 159 -22 471 -22 630 0 552 74 1040 304 1428 674
54 52 109 96 126 101 51 14 92 -5 163 -75 73 -71 68 -70 198 -59 103 8 176 -5
261 -48 176 -88 290 -305 259 -494 -16 -95 -14 -100 48 -167 118 -127 112
-155 -60 -323 -591 -574 -1414 -946 -2285 -1035 l-121 -12 -7 -36 c-18 -99
-88 -189 -182 -236 -50 -25 -69 -29 -143 -29 -68 0 -94 5 -132 23 -100 48
-176 144 -193 242 l-7 36 -118 11 c-664 65 -1346 318 -1880 696 -224 159 -519
427 -540 492 -17 50 2 96 71 170 63 68 64 69 50 177 -30 242 138 478 377 528
36 7 88 9 142 5 131 -11 126 -12 206 63 68 65 100 83 132 75 8 -2 20 -4 28 -4z"/>
<path d="M4020 8134 c-249 -53 -430 -265 -430 -503 1 -310 235 -550 538 -551
156 0 302 59 408 164 109 109 154 221 154 384 0 147 -44 256 -145 358 -130
132 -334 189 -525 148z m237 -294 c125 -63 172 -193 118 -324 -65 -155 -266
-203 -397 -96 -81 67 -118 216 -74 300 71 136 220 187 353 120z"/>
<path d="M5035 7748 c-65 -194 -138 -408 -161 -476 -31 -87 -40 -124 -31 -127
41 -16 252 -85 258 -85 4 0 46 117 95 261 51 153 90 255 95 247 4 -7 57 -156
118 -332 61 -175 112 -320 113 -321 8 -6 260 -87 263 -84 2 2 66 191 143 419
77 228 149 440 160 472 l20 56 -130 46 c-71 25 -133 46 -138 46 -4 0 -47 -117
-96 -260 -49 -145 -91 -255 -95 -248 -4 7 -55 153 -114 323 -59 171 -113 315
-119 321 -10 10 -237 94 -255 94 -4 0 -61 -159 -126 -352z"/>
<path d="M2998 7842 c-71 -31 -128 -60 -128 -65 0 -9 375 -883 388 -904 6 -9
41 2 132 42 69 30 126 58 128 64 3 9 -352 844 -381 896 -12 21 -13 21 -139
-33z"/>
<path d="M6530 7437 c-132 -37 -250 -180 -250 -302 0 -66 25 -117 109 -226 84
-108 95 -143 57 -176 -31 -27 -45 -28 -89 -10 -46 20 -101 86 -126 151 -11 31
-21 61 -21 66 0 6 -5 10 -11 10 -21 0 -229 -112 -229 -123 1 -48 111 -212 181
-269 193 -155 398 -157 536 -4 59 66 84 118 90 185 7 78 -21 144 -107 259 -39
52 -71 101 -71 110 -4 49 9 62 60 62 28 0 43 -9 81 -48 26 -27 51 -64 58 -89
l12 -41 113 60 c61 33 114 62 116 64 7 6 -50 94 -99 152 -116 140 -278 206
-410 169z"/>
<path d="M2087 7268 l-107 -90 38 -46 c38 -46 593 -724 597 -730 3 -3 455 368
455 374 0 3 -35 47 -77 99 -49 61 -81 91 -87 86 -175 -144 -221 -179 -227
-175 -4 2 -112 132 -240 289 -128 157 -235 285 -238 284 -3 0 -54 -41 -114
-91z"/>
<path d="M587 4908 c-40 -62 -97 -153 -126 -202 -49 -83 -151 -280 -151 -291
0 -14 95 -2 134 17 42 20 45 24 51 72 13 96 76 284 159 479 9 20 14 37 12 37
-3 0 -38 -51 -79 -112z"/>
<path d="M1195 4831 c11 -118 52 -179 135 -201 38 -10 136 -4 144 9 3 4 -24
21 -59 39 -58 31 -161 125 -208 192 -18 25 -18 24 -12 -39z"/>
<path d="M1619 4255 c0 -49 -4 -101 -8 -115 -7 -24 -8 -22 -28 22 -24 53 -86
124 -132 151 -17 10 -31 16 -31 14 0 -3 11 -29 24 -58 50 -114 63 -262 33
-361 -18 -56 -13 -59 80 -48 85 10 148 42 162 82 34 96 -8 286 -83 383 -14 19
-15 13 -17 -70z"/>
<path d="M1249 4201 c-185 -60 -456 -212 -570 -318 -61 -57 -66 -91 -10 -83 7
1 52 33 100 71 112 92 215 153 441 266 138 68 177 92 155 92 -16 0 -69 -12
-116 -28z"/>
<path d="M1275 4101 c-226 -79 -575 -307 -563 -367 6 -34 35 -25 99 31 98 86
250 184 417 268 83 43 154 82 157 87 10 17 -26 10 -110 -19z"/>
<path d="M1320 3996 c-70 -20 -188 -72 -273 -120 -142 -81 -298 -211 -283
-235 14 -22 43 -9 111 50 95 82 194 146 358 230 75 39 137 75 137 80 0 5 -1 9
-2 8 -2 0 -23 -6 -48 -13z"/>
<path d="M4306 6518 c-898 -79 -1661 -740 -1871 -1623 -45 -188 -58 -320 -52
-545 9 -351 72 -603 228 -910 109 -215 235 -386 415 -560 817 -792 2115 -798
2934 -14 340 326 549 717 636 1189 25 137 30 469 10 622 -149 1131 -1162 1942
-2300 1841z m544 -812 l0 -103 -79 -5 c-96 -6 -148 -34 -183 -101 l-23 -42 -3
-982 -2 -983 321 0 c360 0 370 2 411 69 20 31 24 54 29 166 5 116 8 136 34
190 30 62 117 158 168 184 28 15 29 14 94 -51 l66 -66 -42 -58 c-112 -156 -91
-345 53 -483 l36 -35 0 -128 0 -128 -1050 0 -1050 0 0 140 0 140 68 0 c97 0
148 27 185 100 l27 55 -2 940 c-3 853 -5 943 -20 970 -38 70 -105 105 -198
105 l-60 0 0 105 0 105 610 0 610 0 0 -104z"/>
<path d="M7830 5564 c-58 -12 -128 -34 -297 -95 -71 -26 -195 -38 -273 -28
-64 9 -150 50 -150 71 0 6 -3 9 -6 6 -10 -11 34 -83 78 -125 24 -23 63 -51 88
-62 59 -27 176 -28 258 -2 l60 18 26 -26 26 -26 0 78 c0 72 2 78 24 89 14 6
32 8 42 4 15 -6 16 -17 10 -96 -6 -75 -5 -90 7 -90 21 0 82 71 112 130 26 51
31 55 59 44 19 -7 14 -38 -17 -99 -37 -77 -98 -125 -157 -125 -53 0 -130 -48
-130 -81 0 -46 128 -28 257 37 60 30 91 40 102 34 15 -7 33 -33 81 -116 12
-21 31 -34 61 -43 50 -15 117 -50 168 -86 33 -25 91 -34 91 -16 0 6 -25 45
-56 88 -31 43 -67 101 -80 130 -24 54 -57 174 -69 253 -4 25 -13 60 -21 78
-27 66 -143 89 -294 56z"/>
<path d="M8408 4833 c-17 -17 -55 -19 -111 -8 l-32 7 40 -42 c63 -65 144 -107
181 -93 24 9 16 55 -18 105 -18 27 -35 48 -38 48 -3 0 -13 -7 -22 -17z"/>
<path d="M8471 4567 c48 -47 88 -77 107 -82 54 -11 65 10 36 71 -14 28 -19 32
-35 24 -24 -14 -62 -4 -129 32 l-55 29 76 -74z"/>
<path d="M8551 4414 c35 -37 103 -75 123 -68 27 10 19 34 -11 34 -16 0 -52 14
-82 30 l-55 30 25 -26z"/>
<path d="M7600 4313 c0 -5 47 -33 104 -61 56 -28 136 -77 177 -108 171 -132
315 -264 286 -264 -2 0 -48 30 -102 66 -208 139 -441 232 -589 236 -52 1 -76
-5 -64 -17 2 -3 47 -16 99 -29 52 -13 140 -44 197 -70 167 -74 422 -223 422
-247 0 -6 -6 -9 -12 -6 -260 98 -760 224 -812 204 -36 -14 -10 -25 117 -50
158 -31 284 -70 596 -185 l234 -86 35 20 c19 10 44 31 55 46 l20 27 -27 36
c-40 53 -259 247 -362 321 -107 77 -273 163 -332 171 -24 3 -42 2 -42 -4z"/>
<path d="M2295 2043 c-121 -134 -229 -255 -239 -268 l-20 -25 29 -30 c16 -16
32 -30 35 -30 5 0 214 229 458 501 l32 37 -37 30 -38 29 -220 -244z"/>
<path d="M6362 2189 c-29 -26 -31 -32 -20 -48 7 -10 111 -135 232 -279 l219
-261 94 79 c51 44 93 83 93 87 0 4 -9 21 -21 36 l-20 28 -41 -33 c-22 -18 -51
-41 -63 -51 l-24 -18 -206 246 c-114 135 -207 245 -208 245 -1 0 -17 -14 -35
-31z"/>
<path d="M2455 1866 c-113 -161 -205 -296 -205 -299 0 -3 16 -15 36 -28 30
-18 38 -20 49 -8 25 27 139 195 212 314 40 66 73 115 73 109 0 -5 -38 -124
-85 -264 -47 -140 -85 -258 -85 -261 0 -13 71 -52 79 -43 23 26 401 574 401
581 0 8 -70 57 -74 51 -52 -69 -160 -232 -215 -325 -40 -68 -74 -123 -75 -123
-2 0 34 116 80 258 46 141 84 264 84 272 0 8 -16 25 -35 37 l-34 23 -206 -294z"/>
<path d="M6134 2019 l-32 -20 129 -341 c72 -188 131 -344 133 -345 2 -2 20 6
41 18 40 24 40 23 6 106 l-21 53 59 39 58 40 49 -50 c26 -27 52 -49 57 -49 4
0 23 10 42 23 l34 23 -262 262 -262 261 -31 -20z m119 -166 c18 -21 69 -79
115 -130 45 -50 82 -94 82 -97 0 -3 -20 -19 -45 -36 l-45 -31 -14 33 c-8 18
-41 93 -74 166 -33 72 -58 132 -56 132 3 0 19 -17 37 -37z"/>
<path d="M2946 1914 c-9 -20 -16 -38 -14 -39 2 -1 24 -13 50 -26 l47 -24 -149
-280 c-82 -154 -150 -283 -150 -286 0 -3 18 -14 41 -24 32 -15 42 -16 48 -6 5
7 73 134 151 282 l143 268 48 -25 49 -24 17 35 c9 19 15 37 12 39 -6 6 -267
146 -271 146 -3 0 -12 -16 -22 -36z"/>
<path d="M5893 1874 c-18 -8 -33 -16 -33 -18 0 -14 126 -267 178 -360 34 -60
61 -110 60 -112 -2 -1 -86 89 -187 202 -101 112 -188 204 -192 204 -20 0 -79
-35 -75 -44 9 -21 298 -641 300 -643 4 -5 86 32 86 38 0 11 -137 291 -189 387
-28 50 -49 92 -48 92 2 0 88 -94 191 -210 l188 -209 39 19 38 20 -18 43 c-89
202 -283 602 -293 604 -7 1 -28 -5 -45 -13z"/>
<path d="M3280 1754 c-6 -15 -58 -144 -116 -288 -59 -143 -114 -282 -124 -307
l-19 -46 114 -47 c63 -25 117 -46 120 -46 7 0 38 71 33 75 -2 1 -36 15 -76 30
-40 16 -71 33 -68 39 2 6 23 56 45 110 23 55 43 101 45 103 2 2 32 -7 67 -21
34 -14 63 -25 64 -23 5 5 35 66 35 70 0 3 -27 15 -61 27 -33 13 -63 28 -65 34
-4 11 61 184 75 199 4 4 40 -6 79 -22 l72 -30 15 36 c9 20 12 40 8 43 -10 8
-215 90 -226 90 -4 0 -12 -12 -17 -26z"/>
<path d="M5349 1657 c-45 -29 -79 -98 -79 -158 0 -98 81 -351 141 -443 41 -61
81 -88 139 -94 58 -5 122 25 150 71 42 69 36 164 -22 346 -50 159 -107 254
-169 286 -43 23 -120 19 -160 -8z m134 -94 c50 -53 134 -288 144 -404 5 -59 3
-69 -16 -88 -62 -62 -122 6 -191 219 -49 148 -61 237 -36 275 23 34 64 33 99
-2z"/>
<path d="M3492 1327 c-51 -188 -92 -346 -92 -349 0 -13 82 -30 89 -19 4 6 25
78 46 161 22 82 42 150 46 150 3 0 11 -71 18 -157 17 -206 15 -201 63 -214 22
-5 42 -8 45 -5 3 2 -3 84 -12 181 -10 96 -16 177 -14 178 2 1 22 11 44 22 56
28 98 112 103 205 4 65 3 69 -29 105 -28 29 -50 41 -119 60 -47 14 -88 25 -91
25 -3 0 -47 -154 -97 -343z m225 206 c28 -42 -9 -180 -52 -197 -33 -12 -65 -7
-65 12 0 17 48 201 56 214 8 12 46 -5 61 -29z"/>
<path d="M5087 1590 c-20 -4 -40 -10 -43 -13 -4 -3 24 -164 62 -357 l68 -351
41 7 c22 3 43 9 46 13 5 5 -125 700 -133 705 -2 1 -20 -1 -41 -4z"/>
<path d="M3950 1573 c0 -5 -22 -165 -49 -358 -27 -192 -48 -351 -47 -352 1 -2
23 -6 48 -9 l45 -6 18 133 c10 74 23 197 29 274 14 161 7 182 65 -195 l37
-235 43 -6 c27 -3 44 -2 46 5 2 6 25 166 51 354 52 376 52 362 -13 362 -26 0
-32 -4 -37 -27 -13 -69 -35 -269 -42 -383 -4 -69 -9 -119 -11 -113 -3 7 -24
132 -47 278 -23 145 -44 266 -47 268 -9 9 -89 17 -89 10z"/>
<path d="M4801 1548 c-80 -10 -147 -21 -149 -23 -3 -2 -1 -21 2 -41 l7 -37 54
7 54 6 6 -32 c3 -18 21 -161 40 -318 20 -156 37 -285 38 -285 1 -1 21 0 45 3
35 3 42 8 42 26 0 11 -16 153 -36 315 -40 324 -41 311 29 311 l38 0 -3 42 c-2
23 -7 42 -13 44 -5 1 -75 -7 -154 -18z"/>
<path d="M4455 1508 c-13 -56 -135 -683 -135 -695 0 -9 14 -13 40 -13 46 0 53
10 65 98 l7 52 73 0 74 0 11 -57 c6 -32 13 -64 15 -70 5 -14 95 -19 95 -5 0 4
-37 166 -82 360 l-82 352 -38 0 c-31 0 -39 -4 -43 -22z m71 -276 c12 -75 25
-154 29 -174 l7 -38 -56 0 c-38 0 -56 4 -56 13 -1 31 45 345 50 341 2 -3 14
-67 26 -142z"/>
<path d="M4437 690 c-77 -24 -137 -108 -137 -191 0 -58 34 -124 83 -163 36
-29 45 -31 117 -31 72 0 81 2 117 31 112 90 110 247 -3 327 -44 31 -127 44
-177 27z m129 -49 c61 -28 89 -73 89 -143 0 -63 -19 -97 -75 -136 -93 -63
-227 7 -237 125 -5 65 26 120 87 151 54 27 82 27 136 3z"/>
<path d="M4465 620 l-30 -5 -3 -113 c-3 -107 -2 -112 18 -112 17 0 20 6 20 45
0 37 3 45 18 45 11 0 26 -16 40 -45 17 -36 27 -45 47 -45 l25 0 -25 51 c-24
47 -25 52 -11 68 20 22 21 75 2 90 -22 18 -68 28 -101 21z m61 -44 c25 -19 8
-50 -30 -54 -23 -3 -26 0 -26 26 0 45 20 54 56 28z"/>
</g>
</svg>
