<?xml version="1.0" standalone="no"?>
<!DOCTYPE svg PUBLIC "-//W3C//DTD SVG 20010904//EN"
 "http://www.w3.org/TR/2001/REC-SVG-20010904/DTD/svg10.dtd">
<svg version="1.0" xmlns="http://www.w3.org/2000/svg"
 width="841.000000pt" height="500.000000pt" viewBox="0 0 841.000000 500.000000"
 preserveAspectRatio="xMidYMid meet">

<g transform="translate(0.000000,500.000000) scale(0.100000,-0.100000)"
fill="#000000" stroke="none">
<path d="M7380 4935 c-201 -35 -700 -120 -1110 -190 -410 -69 -887 -150 -1060
-180 -173 -30 -427 -70 -565 -91 -222 -32 -257 -40 -315 -69 -125 -62 -454
-173 -715 -240 -143 -37 -465 -121 -715 -187 l-455 -121 -245 -7 c-135 -4
-364 -17 -510 -29 -218 -18 -291 -28 -410 -57 -80 -20 -217 -49 -305 -65 -157
-29 -164 -29 -386 -23 -202 6 -244 5 -400 -16 -96 -13 -177 -26 -182 -30 -10
-8 15 -77 112 -309 73 -174 85 -197 126 -233 25 -22 45 -44 45 -49 0 -4 -12
-34 -26 -65 l-26 -57 17 -121 c15 -107 22 -133 67 -228 l51 -108 -12 -97 c-7
-54 -24 -163 -38 -243 -15 -89 -22 -164 -19 -195 3 -27 8 -140 12 -250 l6
-200 -31 -114 c-25 -88 -42 -128 -74 -175 -24 -34 -46 -67 -50 -73 -7 -10 27
-13 157 -13 l166 0 0 400 0 401 136 -3 136 -3 87 -247 c48 -136 89 -249 91
-252 3 -2 46 110 95 250 l90 254 133 0 132 0 0 -400 0 -400 198 2 197 3 2 395
3 395 270 3 270 2 0 -80 0 -80 -185 0 -185 0 0 -75 0 -75 175 0 175 0 0 -80 0
-80 -175 0 -175 0 0 -80 0 -80 195 0 195 0 0 -85 0 -85 180 0 180 0 0 400 0
401 136 -3 137 -3 87 -248 c49 -137 90 -250 92 -252 2 -2 44 110 93 250 l90
255 135 0 135 0 0 -398 0 -397 310 -2 310 -2 -49 24 c-108 54 -173 128 -207
238 -30 98 -24 238 14 320 54 117 127 181 250 219 55 16 87 19 170 16 89 -3
111 -8 169 -35 128 -60 206 -164 230 -307 14 -85 -1 -194 -37 -270 -31 -66
-117 -149 -187 -181 l-53 -24 313 0 312 -1 0 400 0 400 198 0 c238 0 285 -10
348 -74 114 -113 72 -326 -75 -377 l-29 -10 101 -170 102 -169 152 0 153 0 0
400 0 400 90 0 90 0 0 -400 0 -400 149 0 148 0 25 58 c14 31 91 211 173 400
l148 342 76 0 76 0 87 -203 c48 -111 125 -290 172 -397 l84 -195 156 -3 156
-3 0 401 0 400 90 0 90 0 -1 -313 0 -312 160 -3 161 -2 0 -85 0 -85 85 0 85 0
0 1950 0 1950 -332 -1 -333 -1 -365 -63z"/>
<path d="M4320 1751 c-71 -23 -122 -66 -156 -131 -14 -26 -19 -57 -19 -115 0
-70 4 -87 29 -132 62 -113 201 -156 321 -99 91 42 135 117 134 226 0 112 -43
191 -124 230 -49 24 -144 35 -185 21z"/>
<path d="M5340 1659 l0 -92 94 6 c51 3 102 11 114 18 22 14 39 46 36 67 -1 6
-2 21 -3 32 -2 39 -57 60 -153 60 l-88 0 0 -91z"/>
<path d="M671 1403 l-1 -303 100 0 c55 0 100 1 100 3 0 1 -45 137 -100 302
l-99 300 0 -302z"/>
<path d="M1186 1628 c-51 -144 -176 -513 -176 -521 0 -4 45 -6 101 -5 l101 3
1 297 c1 164 1 298 1 298 -1 0 -14 -33 -28 -72z"/>
<path d="M2891 1403 l-1 -303 101 0 c91 0 100 2 95 18 -4 9 -48 145 -100 302
l-94 285 -1 -302z"/>
<path d="M3417 1658 c-8 -24 -53 -156 -101 -294 -47 -138 -86 -254 -86 -257 0
-4 47 -7 105 -7 l105 0 0 300 c0 165 -2 300 -4 300 -2 0 -11 -19 -19 -42z"/>
<path d="M6991 1639 c-5 -13 -25 -66 -45 -118 -20 -51 -36 -94 -36 -96 0 -8
171 -2 176 6 4 8 -70 215 -82 228 -2 2 -8 -7 -13 -20z"/>
<path d="M5340 1260 l0 -160 125 0 126 0 -83 160 -83 160 -42 0 -43 0 0 -160z"/>
<path d="M6820 1190 c-18 -44 -30 -83 -28 -86 3 -2 102 -3 220 -2 l216 3 -33
80 -33 80 -155 3 -155 2 -32 -80z"/>
<path d="M5688 766 c-105 -28 -160 -93 -166 -196 -7 -121 45 -181 207 -235
107 -35 139 -57 146 -99 23 -122 -154 -186 -267 -95 l-38 30 -37 -35 -38 -35
29 -30 c73 -76 251 -95 349 -38 85 50 127 136 113 230 -13 83 -75 136 -201
172 -115 33 -155 67 -157 132 -3 101 144 149 237 79 l35 -27 40 33 c22 18 40
36 40 40 0 12 -64 55 -100 67 -54 17 -140 20 -192 7z"/>
<path d="M492 483 c4 -312 5 -318 79 -398 103 -112 300 -115 409 -5 76 76 83
105 87 394 2 137 1 257 -2 267 -5 15 -16 19 -56 19 l-49 0 0 -257 c0 -230 -2
-262 -19 -298 -38 -83 -120 -124 -205 -105 -56 12 -87 38 -116 96 -24 48 -25
55 -28 307 l-3 257 -50 0 -50 0 3 -277z"/>
<path d="M1450 390 l0 -370 50 0 50 0 2 297 3 298 129 -190 c72 -104 162 -237
202 -295 l72 -105 66 -3 66 -3 0 371 0 370 -50 0 -50 0 -2 -301 -3 -300 -201
298 -201 298 -67 3 -66 3 0 -371z"/>
<path d="M2490 390 l0 -370 50 0 50 0 0 370 0 370 -50 0 -50 0 0 -370z"/>
<path d="M2895 743 c3 -10 67 -177 142 -371 l136 -353 51 3 50 3 138 350 c76
193 141 358 144 368 5 16 0 18 -51 15 l-57 -3 -109 -290 c-60 -159 -110 -294
-112 -299 -2 -5 -52 127 -111 292 l-109 302 -60 0 c-52 0 -58 -2 -52 -17z"/>
<path d="M3860 390 l0 -370 248 0 248 0 -2 37 c-1 21 -2 41 -3 46 0 4 -89 7
-196 7 l-195 0 0 120 0 120 175 0 175 0 0 45 0 45 -175 0 -175 0 0 110 0 110
190 0 190 0 0 50 0 50 -240 0 -240 0 0 -370z"/>
<path d="M4710 390 l0 -370 50 0 50 0 0 160 0 160 54 0 54 0 94 -160 93 -160
63 0 c57 0 62 2 53 18 -5 9 -50 82 -100 162 -50 79 -91 147 -91 150 0 3 19 11
43 17 89 24 145 126 126 229 -10 56 -32 90 -78 121 -47 32 -116 43 -271 43
l-140 0 0 -370z m304 267 c53 -16 79 -54 78 -112 -1 -85 -53 -115 -199 -115
l-83 0 0 120 0 120 83 -1 c45 0 100 -6 121 -12z"/>
<path d="M6347 753 c-3 -5 -5 -171 -6 -371 l-2 -362 55 0 56 0 0 370 0 370
-49 0 c-28 0 -52 -3 -54 -7z"/>
<path d="M6760 710 l0 -50 120 0 120 0 0 -320 0 -320 50 0 50 0 0 320 0 320
120 0 120 0 0 50 0 50 -290 0 -290 0 0 -50z"/>
<path d="M7556 748 c5 -7 68 -104 141 -216 l133 -202 0 -155 0 -155 50 0 50 0
0 155 0 155 141 212 142 213 -53 3 c-29 2 -58 1 -65 -2 -7 -2 -57 -74 -111
-160 -55 -86 -101 -156 -104 -155 -3 0 -49 72 -103 159 l-98 160 -65 0 c-50 0
-63 -3 -58 -12z"/>
</g>
</svg>
