<?xml version="1.0" standalone="no"?>
<!DOCTYPE svg PUBLIC "-//W3C//DTD SVG 20010904//EN"
 "http://www.w3.org/TR/2001/REC-SVG-20010904/DTD/svg10.dtd">
<svg version="1.0" xmlns="http://www.w3.org/2000/svg"
 width="263.000000pt" height="144.000000pt" viewBox="0 0 263.000000 144.000000"
 preserveAspectRatio="xMidYMid meet">

<g transform="translate(0.000000,144.000000) scale(0.100000,-0.100000)"
fill="#000000" stroke="none">
<path d="M1134 1241 c-17 -10 -36 -34 -43 -52 -17 -49 -15 -361 3 -404 20 -46
65 -69 128 -63 26 3 48 2 48 -2 0 -9 46 -30 65 -30 11 0 15 12 15 40 0 25 -5
40 -12 40 -10 0 -13 50 -13 215 l0 215 -27 26 c-36 37 -118 44 -164 15z m108
-75 c9 -13 11 -328 2 -350 -9 -23 -61 -21 -74 3 -6 11 -10 87 -10 175 0 142 2
158 20 176 20 20 47 18 62 -4z"/>
<path d="M1392 1020 l3 -242 33 -29 c56 -50 157 -37 190 25 13 25 17 72 20
233 5 245 4 253 -43 253 l-35 0 0 -211 c0 -126 -4 -218 -10 -230 -7 -12 -21
-19 -40 -19 -17 0 -31 1 -32 3 -1 1 -5 103 -8 227 l-5 225 -38 3 -38 3 3 -241z"/>
<path d="M1755 1248 c-11 -30 -85 -510 -80 -519 9 -14 65 -11 70 4 2 6 6 29
10 50 6 37 6 37 55 37 53 0 55 -2 62 -70 3 -22 9 -25 46 -28 l42 -3 -7 43 c-3
24 -23 144 -42 268 l-36 225 -58 3 c-40 2 -59 -1 -62 -10z m73 -207 c7 -49 15
-103 18 -120 6 -31 6 -31 -36 -31 -42 0 -42 0 -36 31 3 17 11 71 18 120 6 49
14 89 18 89 4 0 12 -40 18 -89z"/>
<path d="M2000 991 l0 -271 35 0 35 0 0 187 c0 102 2 184 5 182 2 -3 26 -86
53 -184 l49 -180 42 -3 41 -3 0 270 0 271 -35 0 -35 0 0 -152 c0 -83 -2 -149
-5 -147 -2 3 -22 70 -43 149 l-39 145 -51 3 -52 3 0 -270z"/>
<path d="M2307 1254 c-4 -4 -7 -22 -7 -40 0 -31 2 -33 43 -36 l42 -3 3 -228 2
-228 38 3 37 3 3 228 2 227 46 0 45 0 -3 38 -3 37 -121 3 c-66 1 -123 -1 -127
-4z"/>
<path d="M464 1234 c-14 -37 -249 -609 -347 -844 l-65 -155 215 -3 c118 -1
308 -1 422 0 l208 3 -109 265 c-60 146 -142 344 -183 440 -40 96 -83 202 -96
235 -26 72 -36 85 -45 59z m91 -440 c31 -76 85 -207 121 -290 35 -84 64 -157
64 -163 0 -8 -78 -11 -265 -11 -149 0 -265 4 -265 9 0 5 25 69 56 142 31 74
75 182 99 240 112 275 107 264 121 237 7 -14 38 -87 69 -164z"/>
<path d="M1062 638 c-22 -22 -14 -63 18 -93 19 -18 30 -38 28 -50 -4 -23 -38
-34 -38 -11 0 8 -4 18 -10 21 -6 4 -10 -5 -10 -19 0 -19 7 -27 25 -32 58 -15
75 53 25 101 -31 30 -39 59 -18 71 6 4 17 -1 24 -11 17 -23 32 -11 18 13 -14
21 -45 27 -62 10z"/>
<path d="M1291 641 c-16 -11 -26 -95 -17 -145 5 -27 13 -37 32 -42 42 -11 54
10 54 95 0 47 -5 82 -12 89 -14 14 -37 15 -57 3z m44 -91 c0 -63 -3 -75 -17
-78 -16 -3 -18 6 -18 78 0 72 2 81 18 78 14 -3 17 -15 17 -78z"/>
<path d="M1522 638 c-7 -7 -12 -42 -12 -89 0 -85 12 -106 55 -95 20 5 25 13
25 36 0 17 -4 30 -10 30 -5 0 -10 -12 -10 -26 0 -19 -4 -25 -17 -22 -15 3 -18
15 -18 77 0 81 16 104 37 54 11 -27 12 -27 16 -5 7 42 -37 69 -66 40z"/>
<path d="M1740 550 c0 -60 4 -100 10 -100 6 0 10 40 10 100 0 60 -4 100 -10
100 -6 0 -10 -40 -10 -100z"/>
<path d="M1910 550 l0 -100 40 0 c22 0 40 5 40 10 0 6 -13 10 -30 10 -28 0
-30 3 -30 35 0 31 3 35 25 35 14 0 25 5 25 10 0 6 -11 10 -25 10 -22 0 -25 4
-25 35 0 32 2 35 30 35 17 0 30 5 30 10 0 6 -18 10 -40 10 l-40 0 0 -100z"/>
<path d="M2125 640 c-3 -5 3 -10 14 -10 20 0 21 -6 21 -90 0 -53 4 -90 10 -90
6 0 10 37 10 90 0 83 1 90 20 90 11 0 20 5 20 10 0 6 -20 10 -44 10 -25 0 -48
-4 -51 -10z"/>
<path d="M2356 623 c4 -16 13 -45 21 -67 7 -21 13 -54 13 -72 0 -19 5 -34 10
-34 6 0 10 15 10 33 0 19 9 60 20 92 23 66 24 75 10 75 -5 0 -14 -18 -20 -40
-6 -22 -14 -40 -19 -40 -4 0 -13 18 -20 40 -13 45 -35 56 -25 13z"/>
<path d="M1351 294 c1 -27 3 -31 6 -15 4 19 7 21 14 10 8 -12 10 -12 18 0 7
11 10 9 14 -10 3 -17 5 -13 6 14 1 35 -13 51 -22 25 -3 -10 -7 -10 -20 1 -15
12 -17 10 -16 -25z"/>
<path d="M1420 295 c0 -32 2 -35 30 -35 18 0 30 5 30 13 0 8 7 14 15 14 8 0
15 -6 15 -14 0 -7 5 -13 10 -13 6 0 10 5 10 10 0 6 8 5 20 -2 16 -10 24 -10
40 0 16 10 20 10 20 0 0 -9 3 -8 10 2 7 10 12 12 18 4 4 -6 38 -11 77 -11 39
0 64 2 58 4 -7 3 -13 18 -13 34 0 37 -20 38 -21 2 l-1 -28 -10 28 c-5 15 -13
27 -18 27 -5 0 -13 -12 -18 -27 l-10 -28 -1 26 c-1 22 -6 26 -36 27 -19 1 -35
-3 -35 -8 0 -6 -9 -5 -20 2 -16 10 -24 10 -39 1 -15 -10 -21 -10 -25 0 -3 8
-9 7 -19 -6 -13 -15 -15 -16 -21 -2 -3 9 -18 15 -36 15 -28 0 -30 -3 -30 -35z
m40 0 c0 -16 -6 -25 -15 -25 -18 0 -20 20 -2 21 10 0 10 2 0 6 -18 7 -16 23 2
23 9 0 15 -9 15 -25z m127 9 c8 -21 -13 -42 -28 -27 -13 13 -5 43 11 43 6 0
13 -7 17 -16z m53 6 c0 -5 -4 -10 -10 -10 -5 0 -10 5 -10 10 0 6 5 10 10 10 6
0 10 -4 10 -10z m17 -32 c-3 -8 -6 -5 -6 6 -1 11 2 17 5 13 3 -3 4 -12 1 -19z"/>
<path d="M1800 308 c1 -59 53 -67 58 -9 2 21 0 31 -7 26 -6 -3 -11 -17 -11
-31 0 -13 -4 -24 -10 -24 -5 0 -10 14 -10 30 0 17 -4 30 -10 30 -5 0 -10 -10
-10 -22z"/>
<path d="M1871 295 c1 -22 3 -32 6 -22 5 18 6 18 24 1 18 -17 19 -16 18 22 -1
27 -3 31 -6 15 l-5 -25 -19 25 -19 24 1 -40z"/>
<path d="M1933 295 c0 -22 2 -30 4 -17 2 12 2 30 0 40 -3 9 -5 -1 -4 -23z"/>
<path d="M1950 329 c0 -14 23 -69 30 -69 4 0 12 15 18 33 l10 32 1 -32 c1 -30
4 -33 30 -33 16 0 32 6 34 13 4 10 6 10 6 0 1 -7 5 -13 10 -13 5 0 8 15 7 33
-1 31 -2 32 -54 35 -42 2 -52 0 -52 -12 0 -21 -10 -20 -26 2 -7 9 -14 14 -14
11z m100 -34 c0 -16 -6 -25 -15 -25 -8 0 -15 5 -15 10 0 6 5 10 11 10 8 0 8 5
-1 15 -10 12 -10 15 4 15 10 0 16 -9 16 -25z"/>
<path d="M2110 310 c0 -11 7 -20 15 -20 21 0 19 -18 -2 -23 -10 -2 -1 -4 20
-4 34 0 37 3 37 29 0 39 18 35 23 -4 l4 -33 1 33 c2 41 19 41 36 1 11 -26 14
-28 18 -13 3 11 9 28 13 39 6 19 6 19 -8 2 -13 -15 -15 -16 -21 -2 -3 10 -19
15 -46 15 -33 0 -40 -3 -40 -19 0 -14 -5 -18 -20 -14 -11 3 -20 10 -20 15 0 6
7 8 15 4 8 -3 15 -1 15 4 0 6 -9 10 -20 10 -13 0 -20 -7 -20 -20z"/>
</g>
</svg>
